<svg width="40" height="40" fill="none" xmlns="http://www.w3.org/2000/svg"><path fill-rule="evenodd" clip-rule="evenodd" d="M4.652 20c0-3.202.927-6.332 2.665-8.995a15.9 15.9 0 017.097-5.963 15.472 15.472 0 019.137-.921 15.703 15.703 0 018.096 4.43 16.313 16.313 0 014.328 8.29c.61 3.141.297 6.396-.9 9.355a16.115 16.115 0 01-5.824 7.266 15.554 15.554 0 01-8.786 2.728 15.462 15.462 0 01-8.45-2.502 1.832 1.832 0 00-1.527-.216L5.13 35.11l2.019-4.833a1.946 1.946 0 00-.13-1.752A16.393 16.393 0 014.651 20zM20.465 0C9.677 0 .931 8.954.931 20c0 3.5.88 6.796 2.428 9.663l-3.21 7.684a1.947 1.947 0 00.324 2.017 1.823 1.823 0 001.92.556l8.372-2.556a19.104 19.104 0 009.7 2.636C31.255 40 40 31.046 40 20S31.254 0 20.465 0zm4.267 24.156l-2.447 1.764a17.428 17.428 0 01-3.68-2.901 19.388 19.388 0 01-3.021-4.027l1.553-1.35c.324-.281.544-.667.624-1.094a1.94 1.94 0 00-.185-1.253l-1.98-3.81a1.893 1.893 0 00-.543-.64 1.819 1.819 0 00-2.322.102l-.587.524c-1.412 1.26-2.248 3.333-1.556 5.432a23.036 23.036 0 005.386 8.811c3.373 3.454 6.8 4.814 8.806 5.343 1.615.425 3.142-.145 4.22-1.044l1.099-.918a1.9 1.9 0 00.533-.723 1.944 1.944 0 00-.126-1.754 1.882 1.882 0 00-.63-.635l-3.122-1.905a1.826 1.826 0 00-2.024.078h.002z" fill="#4C52ED"/></svg>